<svg version="1.1" id="Layer_1" xmlns="http://www.w3.org/2000/svg" xmlns:xlink="http://www.w3.org/1999/xlink" x="0px" y="0px"
	 width="100%" viewBox="0 0 512 159" enable-background="new 0 0 512 159" xml:space="preserve">
<path fill="#FEFEFD" opacity="1.000000" stroke="none" 
	d="
M327.000000,160.000000 
	C218.000015,160.000000 109.500038,160.000000 1.000044,160.000000 
	C1.000029,107.000031 1.000029,54.000057 1.000015,1.000043 
	C86.333290,1.000000 171.666580,1.000000 256.999878,1.000000 
	C342.333191,1.000000 427.666504,1.000000 512.999878,1.000000 
	C512.999878,53.999928 512.999878,106.999855 512.999939,159.999893 
	C451.166656,160.000000 389.333344,160.000000 327.000000,160.000000 
M103.984566,143.289185 
	C104.713654,142.923859 105.442741,142.558548 106.923889,142.161545 
	C115.489494,138.818924 124.055107,135.476318 132.798218,132.258102 
	C132.798218,132.258102 132.977951,132.136917 133.507599,132.157745 
	C133.667114,132.081787 133.826630,132.005829 134.744370,131.933640 
	C135.170914,131.676880 135.597443,131.420120 136.661682,131.254105 
	C137.817886,130.506729 138.974091,129.759369 140.378479,128.489548 
	C140.335831,128.301514 140.293198,128.113495 140.481857,127.214111 
	C140.409927,126.477028 140.337982,125.739944 140.452454,124.271942 
	C140.367355,123.530212 140.282257,122.788475 140.385681,121.150452 
	C140.309296,118.409279 140.232910,115.668114 140.380676,112.075012 
	C140.298218,109.735641 140.215759,107.396271 140.319458,104.125664 
	C140.263367,92.393448 140.207260,80.661240 140.378906,68.226768 
	C140.305389,67.500679 140.231873,66.774597 140.144760,65.418434 
	C139.774918,65.232605 139.405090,65.046776 138.629364,64.206787 
	C125.149452,66.150093 112.270866,70.090660 99.289810,75.933517 
	C98.858276,75.997833 98.426735,76.062157 97.351982,76.165146 
	C96.516113,76.758453 95.680244,77.351753 94.122566,77.982651 
	C88.506813,82.539688 82.893463,83.148964 77.204575,78.067467 
	C76.634216,77.557999 75.724556,77.428398 74.362579,76.751213 
	C68.923515,74.663757 63.484444,72.576302 57.511555,70.109779 
	C55.314236,69.490135 53.116913,68.870499 50.152218,68.006683 
	C44.437874,66.727638 38.723534,65.448593 32.214241,64.306313 
	C29.640459,64.845650 28.881516,66.237709 28.907679,69.007668 
	C29.085161,87.798210 28.966326,106.591423 29.084826,125.382881 
	C29.094755,126.957375 30.145113,128.525299 31.212643,130.648972 
	C32.179237,130.859329 33.145836,131.069687 34.264317,131.304993 
	C34.264317,131.304993 34.339733,131.170807 34.838963,131.761017 
	C41.478371,134.085739 48.117779,136.410477 55.289433,139.128174 
	C59.882648,140.997849 64.475868,142.867508 69.404388,145.087631 
	C69.509117,145.210541 69.613846,145.333466 69.718575,145.456375 
	C69.477303,145.658493 69.236031,145.860626 68.176224,145.944809 
	C62.114258,144.716965 56.052296,143.489136 49.224724,142.026215 
	C43.151672,141.053406 37.078617,140.080597 30.229965,138.967758 
	C24.164234,138.656036 22.872429,135.432739 23.030741,129.622192 
	C23.487564,112.855225 23.217899,96.066795 23.066778,79.288292 
	C23.055437,78.028893 21.724419,76.781372 21.006870,75.528328 
	C20.119640,76.557068 18.500021,77.561607 18.465094,78.618507 
	C18.252537,85.050682 18.369753,91.495071 18.434963,97.934799 
	C18.555696,109.857346 19.078053,121.789688 18.742064,133.698456 
	C18.489120,142.663666 16.897667,141.730850 26.747015,143.200714 
	C34.808323,144.559280 42.869625,145.917847 51.622929,147.724487 
	C53.759293,148.109772 55.895660,148.495056 58.781769,149.126526 
	C59.827442,149.243149 60.873119,149.359772 62.428448,149.889450 
	C63.286476,149.937759 64.144508,149.986069 65.713486,150.313782 
	C69.244232,151.505310 73.475899,151.844788 76.166214,154.057938 
	C82.643852,159.386642 89.388443,158.996536 94.845932,152.120285 
	C98.554214,151.378876 102.262497,150.637466 106.730286,149.963074 
	C107.174995,149.738220 107.619698,149.513351 108.814041,149.406357 
	C113.192566,148.658951 117.590721,148.010239 121.945572,147.143875 
	C131.402084,145.262558 140.836472,143.270035 150.275513,141.234772 
	C150.275513,141.234772 150.187332,141.229935 150.932770,140.739029 
	C150.932495,131.494537 150.932236,122.250038 151.123993,112.084625 
	C151.067825,105.397507 151.011673,98.710381 151.150772,91.275116 
	C151.086914,90.510277 151.023056,89.745445 151.117798,88.078247 
	C150.762115,84.328972 150.406433,80.579689 149.694107,76.143814 
	C142.994064,76.316917 147.186676,81.302605 146.093155,84.502434 
	C146.150543,84.662369 146.207916,84.822311 146.192261,85.918976 
	C146.236130,101.379822 146.055573,116.846596 146.463669,132.297821 
	C146.582657,136.802750 144.650909,138.344452 140.232681,139.009491 
	C139.089172,139.281616 137.945663,139.553741 136.928635,139.807114 
	C136.928635,139.807114 136.811356,139.756165 135.972733,139.841522 
	C128.316895,141.274780 120.661057,142.708054 112.215981,144.026474 
	C109.133354,144.732315 106.050735,145.438171 102.436653,145.965912 
	C102.176994,145.520035 101.917336,145.074173 102.109421,144.339569 
	C102.525925,144.012131 102.942436,143.684692 103.984566,143.289185 
M170.612411,51.916904 
	C174.859497,49.837254 172.900085,47.415489 170.480347,44.587929 
	C169.165649,43.611248 167.850967,42.634571 166.409790,41.563927 
	C166.940506,40.506496 167.474716,39.442070 168.847778,36.706264 
	C160.285233,41.872181 153.928772,41.077324 148.887070,33.185017 
	C152.183105,34.037582 155.074463,34.785469 158.692505,35.854065 
	C159.467422,35.797634 160.242325,35.741203 161.711914,35.850128 
	C163.052612,35.525177 164.393311,35.200230 166.468292,34.848557 
	C170.389816,33.590393 172.896500,31.642759 171.105103,28.270138 
	C165.897461,28.902527 161.487778,29.438015 156.628708,29.411655 
	C153.080872,29.829641 150.323318,23.127266 146.416183,28.415119 
	C144.937439,27.270430 143.743011,26.063488 142.312286,25.298399 
	C139.523697,23.807167 137.622208,24.931505 136.966461,28.912317 
	C135.164719,31.789936 137.626144,33.237850 139.098709,35.900394 
	C138.767792,41.690357 140.823364,44.871727 144.473358,45.007362 
	C146.826843,45.094818 149.145844,46.056526 151.484573,46.608292 
	C154.994156,47.436295 158.507523,48.248394 162.298416,49.730972 
	C164.554138,54.596260 167.335724,55.373417 169.977158,51.956856 
	C169.977158,51.956856 169.862076,51.893055 170.612411,51.916904 
M409.676697,87.254623 
	C407.594727,87.254623 405.512726,87.254623 403.155182,87.254623 
	C403.155182,90.845604 403.155182,93.928101 403.016907,97.937485 
	C403.066620,106.299789 403.116364,114.662094 403.355896,123.867325 
	C405.585999,123.867325 407.816071,123.867325 409.918335,123.867325 
	C409.918335,111.614822 409.918335,99.829742 409.676697,87.254623 
M213.260712,96.208473 
	C210.793472,101.310112 209.821594,106.534561 211.970230,112.767570 
	C212.773865,114.485367 213.257584,116.471085 214.434464,117.876289 
	C220.761795,125.431137 230.711441,127.245453 239.064423,122.573448 
	C246.724518,118.288994 250.265808,108.487938 247.838058,99.532410 
	C244.678009,87.875557 228.083862,83.883766 217.378464,91.127304 
	C216.228958,92.700790 215.079453,94.274277 213.260712,96.208473 
M306.011810,87.926880 
	C306.064270,93.283592 306.116699,98.640312 306.017517,104.862724 
	C306.065399,106.909355 306.113281,108.955994 305.990631,111.920937 
	C305.990631,115.865562 305.990631,119.810181 305.990631,123.979988 
	C309.069519,124.022491 312.731598,124.998283 311.957062,120.408203 
	C310.957367,114.483963 314.035278,111.443222 318.965851,108.591995 
	C321.150482,111.757812 323.637817,114.803459 325.502319,118.191818 
	C328.491760,123.624405 332.554932,125.686264 338.843475,123.466400 
	C333.820190,116.255562 328.885284,109.171585 324.369537,102.689339 
	C329.037872,97.693520 333.348816,93.080170 337.659760,88.466827 
	C337.500183,87.970978 337.340607,87.475128 337.181030,86.979286 
	C334.614105,87.337067 331.363861,86.836647 329.618561,88.226311 
	C325.646759,91.388771 322.460388,95.525116 318.858521,99.170555 
	C317.348846,100.698524 315.595093,101.985359 312.793182,104.367104 
	C312.793182,93.503693 312.793182,84.338013 312.793182,74.329987 
	C310.348724,76.431938 306.030518,72.375954 306.017792,78.887260 
	C306.066498,81.592499 306.115173,84.297729 306.011810,87.926880 
M496.713348,99.362846 
	C492.784882,89.280983 487.076233,85.724312 476.863434,86.995697 
	C470.265564,87.817062 462.990906,96.104958 462.003082,103.925896 
	C460.917908,112.517540 465.482971,120.793137 472.898346,123.677040 
	C481.126373,126.877007 490.563171,124.421394 495.254333,117.658958 
	C494.016541,116.672813 492.765137,115.675827 491.513733,114.678841 
	C491.489624,115.177826 491.465515,115.676811 491.441406,116.175804 
	C487.033234,116.781677 482.634888,117.773338 478.214111,117.886276 
	C473.680389,118.002106 469.977417,113.130432 470.940063,108.098114 
	C479.738281,108.098114 488.536499,108.098114 497.668579,108.098114 
	C497.321289,104.931061 497.055145,102.503899 496.713348,99.362846 
M381.791809,124.121292 
	C383.201355,124.059052 384.610931,123.996819 386.912689,123.781326 
	C386.912689,108.282089 386.912689,92.782845 386.912689,76.462471 
	C384.475983,77.005302 382.279968,77.494514 379.812042,78.888069 
	C379.869598,81.362213 379.970703,83.836235 379.977173,86.310516 
	C380.004517,96.771545 380.015045,97.113823 369.619202,97.746300 
	C365.151154,98.018135 360.092499,99.966156 356.111755,95.055328 
	C356.111755,89.095543 356.111755,83.135757 356.111755,76.169281 
	C353.370331,76.882668 351.206390,77.445786 348.688751,78.649452 
	C348.688751,93.696129 348.688751,108.742805 348.688751,123.750854 
	C351.570007,123.750854 353.783051,123.750854 356.340271,123.750854 
	C356.340271,117.011208 356.340271,110.593742 356.340271,103.784378 
	C362.813416,103.784378 368.947662,104.046082 375.045868,103.690163 
	C378.955292,103.461990 380.015533,105.184296 379.994995,108.544426 
	C379.965546,113.362564 379.995148,118.181053 379.629303,123.273262 
	C380.074249,123.490921 380.519196,123.708580 381.791809,124.121292 
M162.998077,118.838303 
	C163.329086,120.535629 163.660095,122.232956 164.902512,124.171799 
	C174.027939,123.847710 183.217133,124.073891 192.258667,123.025963 
	C199.531921,122.182991 204.058762,113.183014 200.763474,106.128265 
	C199.309784,103.016045 196.090591,100.728477 194.378632,98.843552 
	C195.882706,95.803696 198.385574,92.676620 198.934662,89.237587 
	C200.116150,81.838150 193.949158,76.437782 184.372330,76.031227 
	C178.388199,75.777184 172.381210,76.113434 166.387238,76.015610 
	C163.758820,75.972725 162.931671,77.000549 162.957764,79.564728 
	C163.088211,92.383690 163.079315,105.204071 162.998077,118.838303 
M276.468170,86.886131 
	C261.835388,87.393440 253.040085,101.249565 258.907776,114.550743 
	C262.613800,122.951706 271.645538,126.813011 281.375885,124.156441 
	C290.452332,121.678398 296.339233,112.839493 294.813293,102.961617 
	C293.548065,94.771240 288.306549,87.836342 276.468170,86.886131 
M444.277252,98.766930 
	C442.533569,103.776649 441.309143,109.042786 437.542358,113.979172 
	C434.484650,106.047707 431.751312,99.141434 429.160797,92.182007 
	C426.946869,86.234291 426.398834,85.931274 419.191467,87.856949 
	C423.640289,98.819771 427.984131,109.810814 432.641479,120.667336 
	C433.282562,122.161674 435.586517,124.021133 436.930817,123.881721 
	C438.930847,123.674301 441.765991,122.280586 442.501282,120.619522 
	C447.217926,109.964256 451.458252,99.098152 455.851715,88.309700 
	C450.916656,85.880486 448.868530,86.528206 447.070160,91.144630 
	C446.182343,93.423668 445.492340,95.779778 444.277252,98.766930 
M152.712402,23.969719 
	C156.836197,24.465067 160.954269,25.193279 165.087738,25.294889 
	C166.144196,25.320860 167.249420,23.363754 168.332245,22.317755 
	C166.884811,20.931337 165.649872,18.848286 163.938751,18.326292 
	C161.537949,17.593903 158.694489,17.579504 156.204178,18.077379 
	C153.655563,18.586910 150.069916,19.177334 152.712402,23.969719 
M405.833008,73.031418 
	C404.967682,73.779831 403.620789,74.383644 403.343079,75.308502 
	C402.852570,76.942123 402.285492,79.348503 403.092987,80.366936 
	C404.022064,81.538696 406.741089,82.381676 408.069183,81.846130 
	C409.452240,81.288391 411.164886,78.613663 410.821655,77.409508 
	C410.329254,75.681984 408.104095,74.448372 405.833008,73.031418 
M144.988403,48.457500 
	C147.906128,50.518673 150.709671,52.793407 153.835709,54.465012 
	C154.478745,54.808861 156.326187,52.900364 157.376999,52.192665 
	C153.956238,50.371368 151.166916,48.729397 148.229507,47.419571 
	C147.367905,47.035374 146.085815,47.594177 144.988403,48.457500 
M128.180084,55.023582 
	C129.112488,53.503208 130.138718,52.025623 130.873199,50.414993 
	C130.979828,50.181183 129.686020,48.830807 129.046555,48.835613 
	C127.771400,48.845200 126.500626,49.437042 125.228043,49.788387 
	C125.989975,51.578793 126.751900,53.369198 128.180084,55.023582 
z"/>
<path fill="#32271D" opacity="1.000000" stroke="none" 
	d="
M163.119415,118.023949 
	C163.079315,105.204071 163.088211,92.383690 162.957764,79.564728 
	C162.931671,77.000549 163.758820,75.972725 166.387238,76.015610 
	C172.381210,76.113434 178.388199,75.777184 184.372330,76.031227 
	C193.949158,76.437782 200.116150,81.838150 198.934662,89.237587 
	C198.385574,92.676620 195.882706,95.803696 194.378632,98.843552 
	C196.090591,100.728477 199.309784,103.016045 200.763474,106.128265 
	C204.058762,113.183014 199.531921,122.182991 192.258667,123.025963 
	C183.217133,124.073891 174.027939,123.847710 164.457642,123.656288 
	C163.714981,121.435165 163.417206,119.729561 163.119415,118.023949 
M177.522308,103.104240 
	C175.413879,103.104240 173.305466,103.104240 171.116638,103.104240 
	C171.116638,108.152809 171.116638,112.719452 171.116638,117.542458 
	C176.450928,117.542458 181.556198,117.769150 186.629639,117.464996 
	C190.178024,117.252274 193.702942,116.164062 193.944687,111.665833 
	C194.187912,107.140137 191.369507,104.518784 187.388580,103.564796 
	C184.547318,102.883919 181.461807,103.222282 177.522308,103.104240 
M182.255203,83.649040 
	C178.542282,83.649040 174.829361,83.649040 171.324371,83.649040 
	C171.324371,88.577232 171.324371,92.727692 171.324371,96.988998 
	C176.423752,96.632576 181.121613,96.812935 185.541641,95.791252 
	C187.928818,95.239471 191.144089,92.910461 191.578430,90.870636 
	C191.965027,89.055161 189.275345,86.299316 187.459045,84.428795 
	C186.636139,83.581322 184.640671,83.872406 182.255203,83.649040 
z"/>
<path fill="#2E231A" opacity="1.000000" stroke="none" 
	d="
M356.031158,95.987373 
	C360.092499,99.966156 365.151154,98.018135 369.619202,97.746300 
	C380.015045,97.113823 380.004517,96.771545 379.977173,86.310516 
	C379.970703,83.836235 379.869598,81.362213 380.381348,78.440033 
	C382.520935,78.108276 384.091217,78.224556 386.020477,78.367424 
	C386.020477,93.902023 386.020477,108.918304 386.020477,123.934586 
	C384.610931,123.996819 383.201355,124.059052 381.285950,123.808868 
	C380.569611,123.252716 380.309418,123.087036 379.999512,122.999397 
	C379.995148,118.181053 379.965546,113.362564 379.994995,108.544426 
	C380.015533,105.184296 378.955292,103.461990 375.045868,103.690163 
	C368.947662,104.046082 362.813416,103.784378 356.340271,103.784378 
	C356.340271,110.593742 356.340271,117.011208 356.340271,123.750854 
	C353.783051,123.750854 351.570007,123.750854 348.688751,123.750854 
	C348.688751,108.742805 348.688751,93.696129 349.301514,78.322754 
	C351.472229,78.101860 353.030212,78.207657 354.985840,78.340469 
	C354.985840,80.738037 354.874054,82.673553 355.009430,84.591629 
	C355.277924,88.395294 355.682739,92.189346 356.031158,95.987373 
z"/>
<path fill="#30241C" opacity="1.000000" stroke="none" 
	d="
M276.916748,86.890274 
	C288.306549,87.836342 293.548065,94.771240 294.813293,102.961617 
	C296.339233,112.839493 290.452332,121.678398 281.375885,124.156441 
	C271.645538,126.813011 262.613800,122.951706 258.907776,114.550743 
	C253.040085,101.249565 261.835388,87.393440 276.916748,86.890274 
M277.149017,94.090622 
	C270.808502,94.157364 266.920532,96.377296 265.457214,101.242577 
	C263.611542,107.379128 264.947876,112.610313 270.430573,116.492386 
	C274.427734,119.322624 279.031342,118.952637 282.052399,116.272942 
	C284.910126,113.738083 287.586456,109.265373 287.586334,105.645073 
	C287.586121,100.107056 284.178314,95.473030 277.149017,94.090622 
z"/>
<path fill="#2C221A" opacity="1.000000" stroke="none" 
	d="
M470.008331,108.002075 
	C469.977417,113.130432 473.680389,118.002106 478.214111,117.886276 
	C482.634888,117.773338 487.033234,116.781677 491.441406,116.175804 
	C491.465515,115.676811 491.489624,115.177826 491.513733,114.678841 
	C492.765137,115.675827 494.016541,116.672813 495.254333,117.658958 
	C490.563171,124.421394 481.126373,126.877007 472.898346,123.677040 
	C465.482971,120.793137 460.917908,112.517540 462.003082,103.925896 
	C462.990906,96.104958 470.265564,87.817062 476.863434,86.995697 
	C487.076233,85.724312 492.784882,89.280983 496.496765,100.015823 
	C496.049438,102.601219 495.818695,104.533630 495.525848,106.985985 
	C488.225098,106.985985 481.117493,106.934280 474.011932,107.031837 
	C472.673218,107.050232 471.342651,107.663376 470.008331,108.002075 
M475.762360,102.931190 
	C479.387238,102.931129 483.014648,103.006348 486.635345,102.883560 
	C487.675720,102.848267 489.188721,102.519798 489.586060,101.817307 
	C489.971375,101.136070 489.458282,99.630486 488.894440,98.783348 
	C486.469238,95.139832 483.257751,92.608948 478.583588,93.318909 
	C473.930298,94.025703 470.842072,96.652618 469.589447,102.027611 
	C471.482849,102.362862 473.162750,102.660309 475.762360,102.931190 
z"/>
<path fill="#2F231B" opacity="1.000000" stroke="none" 
	d="
M306.169159,103.997025 
	C306.116699,98.640312 306.064270,93.283592 306.453796,87.514908 
	C308.233307,86.858940 310.380615,87.033096 310.761627,86.295181 
	C312.084229,83.733887 309.380615,79.246750 306.171082,77.997208 
	C306.030518,72.375954 310.348724,76.431938 312.793182,74.329987 
	C312.793182,84.338013 312.793182,93.503693 312.793182,104.367104 
	C315.595093,101.985359 317.348846,100.698524 318.858521,99.170555 
	C322.460388,95.525116 325.646759,91.388771 329.618561,88.226311 
	C331.363861,86.836647 334.614105,87.337067 337.181030,86.979286 
	C337.340607,87.475128 337.500183,87.970978 337.659760,88.466827 
	C333.348816,93.080170 329.037872,97.693520 324.369537,102.689339 
	C328.885284,109.171585 333.820190,116.255562 338.843475,123.466400 
	C332.554932,125.686264 328.491760,123.624405 325.502319,118.191818 
	C323.637817,114.803459 321.150482,111.757812 318.965851,108.591995 
	C314.035278,111.443222 310.957367,114.483963 311.957062,120.408203 
	C312.731598,124.998283 309.069519,124.022491 305.990631,123.979988 
	C305.990631,119.810181 305.990631,115.865562 306.445343,111.467987 
	C311.257050,112.610268 312.295837,110.573257 312.033569,106.596603 
	C311.712646,101.731140 308.783875,103.357185 306.169159,103.997025 
z"/>
<path fill="#2E231A" opacity="1.000000" stroke="none" 
	d="
M218.043716,91.014481 
	C228.083862,83.883766 244.678009,87.875557 247.838058,99.532410 
	C250.265808,108.487938 246.724518,118.288994 239.064423,122.573448 
	C230.711441,127.245453 220.761795,125.431137 214.434464,117.876289 
	C213.257584,116.471085 212.773865,114.485367 212.285736,112.254532 
	C214.728821,111.494965 216.856369,111.248436 219.157440,111.227722 
	C219.498123,111.990837 219.665283,112.528137 219.475342,113.057571 
	C218.477936,113.598091 217.837646,114.146484 217.197357,114.694878 
	C217.651291,115.072037 218.105209,115.449203 218.559143,115.826363 
	C219.023834,114.926758 219.488525,114.027145 220.268326,113.200256 
	C221.744293,114.790054 222.905151,116.307129 224.075928,118.184265 
	C224.603485,119.589577 225.121155,120.634827 226.330048,123.075737 
	C226.691559,120.374008 226.845856,119.220810 227.429749,118.033356 
	C231.087265,117.142120 235.066101,117.187988 237.395523,115.250648 
	C243.248596,110.382744 241.818054,102.035378 237.938431,97.520142 
	C233.724640,92.616035 226.190491,92.946075 219.922150,97.948257 
	C219.448547,97.555946 219.223663,97.276138 219.034485,96.645370 
	C218.728027,94.534439 218.385880,92.774460 218.043716,91.014481 
z"/>
<path fill="#31271E" opacity="1.000000" stroke="none" 
	d="
M444.495056,98.433975 
	C445.492340,95.779778 446.182343,93.423668 447.070160,91.144630 
	C448.868530,86.528206 450.916656,85.880486 455.851715,88.309700 
	C451.458252,99.098152 447.217926,109.964256 442.501282,120.619522 
	C441.765991,122.280586 438.930847,123.674301 436.930817,123.881721 
	C435.586517,124.021133 433.282562,122.161674 432.641479,120.667336 
	C427.984131,109.810814 423.640289,98.819771 419.191467,87.856949 
	C426.398834,85.931274 426.946869,86.234291 429.160797,92.182007 
	C431.751312,99.141434 434.484650,106.047707 437.542358,113.979172 
	C441.309143,109.042786 442.533569,103.776649 444.495056,98.433975 
z"/>
<path fill="#9E692B" opacity="1.000000" stroke="none" 
	d="
M140.133286,105.056900 
	C140.215759,107.396271 140.298218,109.735641 139.950134,112.761261 
	C139.336929,115.962082 139.154251,118.476654 138.734772,121.087494 
	C137.716141,121.124161 136.934341,121.064560 136.085892,120.540115 
	C136.008713,105.806450 136.051086,91.537216 135.934692,77.269279 
	C135.915649,74.932526 135.197159,72.601486 134.613403,69.154648 
	C120.837860,73.981796 107.918922,78.508781 95.052658,82.686783 
	C96.717308,80.176758 98.329292,78.015732 99.941277,75.854706 
	C112.270866,70.090660 125.149452,66.150093 138.941315,64.796936 
	C139.554977,65.607559 139.856659,65.828033 140.158356,66.048508 
	C140.231873,66.774597 140.305389,67.500679 139.938080,68.856293 
	C139.360001,80.811478 139.208389,92.137039 139.130768,103.463104 
	C139.127151,103.992058 139.784012,104.525528 140.133286,105.056900 
z"/>
<path fill="#A26D2D" opacity="1.000000" stroke="none" 
	d="
M136.973236,28.222897 
	C137.622208,24.931505 139.523697,23.807167 142.312286,25.298399 
	C143.743011,26.063488 144.937439,27.270430 146.416183,28.415119 
	C150.323318,23.127266 153.080872,29.829641 156.467758,29.705948 
	C153.174255,30.947229 153.212143,32.272202 155.815811,33.948177 
	C156.563019,34.429138 157.250778,35.002411 157.965805,35.533356 
	C155.074463,34.785469 152.183105,34.037582 148.887070,33.185017 
	C153.928772,41.077324 160.285233,41.872181 168.847778,36.706264 
	C167.474716,39.442070 166.940506,40.506496 166.409790,41.563927 
	C167.850967,42.634571 169.165649,43.611248 170.763733,45.196243 
	C170.652115,47.834057 170.257095,49.863556 169.862061,51.893055 
	C169.862076,51.893055 169.977158,51.956856 169.557404,51.943420 
	C168.590240,51.385918 167.567734,50.824032 167.587311,50.301216 
	C167.639481,48.909466 168.727310,46.545296 168.359695,46.327236 
	C166.906738,45.465393 165.004822,44.865211 163.374039,45.057121 
	C162.773468,45.127800 162.462402,47.658577 162.019272,49.067257 
	C158.507523,48.248394 154.994156,47.436295 151.484573,46.608292 
	C149.145844,46.056526 146.826843,45.094818 144.473358,45.007362 
	C140.823364,44.871727 138.767792,41.690357 139.445648,35.396309 
	C141.810349,34.440723 143.828094,33.989223 146.619446,33.364616 
	C143.640976,30.508236 142.535782,25.644321 136.973236,28.222897 
M141.354584,37.906395 
	C142.065903,39.520950 142.540573,42.301556 143.538483,42.504074 
	C145.533875,42.909035 147.815887,41.901726 149.979553,41.477558 
	C149.988922,40.771198 149.998291,40.064838 150.007645,39.358479 
	C147.303116,38.685997 144.598587,38.013512 141.354584,37.906395 
M150.396561,30.201235 
	C150.788086,30.205673 151.179626,30.210112 151.571152,30.214552 
	C151.572556,30.052141 151.584976,29.748610 151.573807,29.747736 
	C151.184250,29.717352 150.792465,29.715481 150.396561,30.201235 
z"/>
<path fill="#A06C2F" opacity="1.000000" stroke="none" 
	d="
M26.021894,142.925171 
	C16.897667,141.730850 18.489120,142.663666 18.742064,133.698456 
	C19.078053,121.789688 18.555696,109.857346 18.434963,97.934799 
	C18.369753,91.495071 18.252537,85.050682 18.465094,78.618507 
	C18.500021,77.561607 20.119640,76.557068 21.006868,75.528328 
	C21.724419,76.781372 23.055437,78.028893 23.066778,79.288292 
	C23.217899,96.066795 23.487564,112.855225 23.030741,129.622192 
	C22.872429,135.432739 24.164234,138.656036 30.648169,139.371613 
	C31.271421,140.640717 31.476473,141.505981 31.613293,142.083328 
	C29.534290,142.396347 27.778091,142.660751 26.021894,142.925171 
z"/>
<path fill="#9F6829" opacity="1.000000" stroke="none" 
	d="
M30.712093,130.096268 
	C30.145113,128.525299 29.094755,126.957375 29.084826,125.382881 
	C28.966326,106.591423 29.085161,87.798210 28.907679,69.007668 
	C28.881516,66.237709 29.640459,64.845650 32.693260,64.588730 
	C35.047188,65.711670 36.922096,66.552177 39.611759,67.757942 
	C37.468357,68.765007 36.237049,69.343536 34.727322,70.125313 
	C34.279396,71.227768 34.109894,72.126968 33.652061,73.324081 
	C33.257454,90.403397 33.136776,107.184784 33.098797,123.966347 
	C33.097313,124.621735 33.887413,125.278915 34.668793,125.970810 
	C37.688652,126.992943 40.348385,127.979530 42.992798,129.365036 
	C41.668774,130.454727 40.417622,131.523895 39.035812,131.734070 
	C37.533760,131.962524 35.910271,131.392609 34.339733,131.170807 
	C34.339733,131.170807 34.264317,131.304993 33.969193,130.970642 
	C32.686749,130.456268 31.699421,130.276260 30.712093,130.096268 
z"/>
<path fill="#9C6729" opacity="1.000000" stroke="none" 
	d="
M146.219330,84.008522 
	C147.186676,81.302605 142.994064,76.316917 149.857025,76.955414 
	C150.333038,81.504875 150.646103,85.242737 150.959167,88.980606 
	C151.023056,89.745445 151.086914,90.510277 150.765320,91.947342 
	C150.259659,99.417801 150.139450,106.216049 150.015778,113.482040 
	C150.070648,123.043175 150.128998,132.136551 150.187347,141.229935 
	C150.187332,141.229935 150.275513,141.234772 149.830185,141.174622 
	C147.438705,141.377182 145.476135,141.934402 143.550583,141.827209 
	C141.202576,141.696472 138.061996,143.591736 136.811356,139.756165 
	C136.811356,139.756165 136.928635,139.807114 137.239014,139.869583 
	C138.690079,139.668427 139.830795,139.404816 140.971497,139.141205 
	C144.650909,138.344452 146.582657,136.802750 146.463669,132.297821 
	C146.055573,116.846596 146.236130,101.379822 146.362411,85.353149 
	C146.691025,84.441727 146.586624,84.182129 146.219330,84.008522 
z"/>
<path fill="#976324" opacity="1.000000" stroke="none" 
	d="
M68.994751,146.062744 
	C69.236031,145.860626 69.477303,145.658493 69.718575,145.456375 
	C69.613846,145.333466 69.509117,145.210541 69.387589,144.612457 
	C69.936646,142.748398 70.502510,141.359512 71.431763,139.995117 
	C74.923126,141.586899 78.051086,143.154236 80.986252,144.624954 
	C82.076904,142.646591 82.910881,141.133835 84.186325,139.772430 
	C85.432053,140.286682 86.236313,140.649567 87.152542,141.382355 
	C87.294640,142.780121 87.324753,143.807999 86.932526,144.881882 
	C84.531570,145.593216 82.489189,146.118835 80.600372,146.980911 
	C79.607674,147.434006 78.172935,148.499817 78.198158,149.246368 
	C78.240295,150.493011 78.992218,152.363312 79.975441,152.813614 
	C83.445435,154.402863 87.048462,155.503571 90.056206,151.554779 
	C91.836807,149.217056 94.006104,147.175400 96.000389,145.375626 
	C96.000824,146.500687 96.001480,147.250717 96.002777,148.332825 
	C96.006592,149.107605 96.009758,149.550339 95.855873,150.237427 
	C95.137146,150.993118 94.575485,151.504440 94.013824,152.015778 
	C89.388443,158.996536 82.643852,159.386642 76.166214,154.057938 
	C73.475899,151.844788 69.244232,151.505310 65.389572,149.828705 
	C66.375351,148.250000 67.685051,147.156372 68.994751,146.062744 
z"/>
<path fill="#A36E30" opacity="1.000000" stroke="none" 
	d="
M99.615540,75.894112 
	C98.329292,78.015732 96.717308,80.176758 94.814468,82.924957 
	C92.019020,85.341217 89.514442,87.170311 86.756104,88.997246 
	C86.333199,88.996979 86.164040,88.998886 85.606796,89.000534 
	C84.183807,88.999847 83.148926,88.999420 82.010674,88.661896 
	C78.559128,86.055664 75.210953,83.786530 71.969490,81.184067 
	C73.041588,79.608002 74.006973,78.365250 74.972359,77.122498 
	C75.724556,77.428398 76.634216,77.557999 77.204575,78.067467 
	C82.893463,83.148964 88.506813,82.539688 94.841080,77.977341 
	C96.371468,77.356857 97.183334,76.741669 97.995201,76.126480 
	C98.426735,76.062157 98.858276,75.997833 99.615540,75.894112 
z"/>
<path fill="#976527" opacity="1.000000" stroke="none" 
	d="
M136.392044,139.798843 
	C138.061996,143.591736 141.202576,141.696472 143.550583,141.827209 
	C145.476135,141.934402 147.438705,141.377182 149.832382,141.218735 
	C140.836472,143.270035 131.402084,145.262558 121.945572,147.143875 
	C117.590721,148.010239 113.192566,148.658951 108.567039,149.055298 
	C110.300972,148.135941 112.281906,147.567642 114.283058,146.993546 
	C113.781982,145.875107 113.393600,145.008224 113.005219,144.141327 
	C120.661057,142.708054 128.316895,141.274780 136.392044,139.798843 
z"/>
<path fill="#2B2218" opacity="1.000000" stroke="none" 
	d="
M403.166077,123.024399 
	C403.116364,114.662094 403.066620,106.299789 403.424744,97.509216 
	C405.524139,97.709709 407.215637,98.338455 408.941772,99.438019 
	C408.976349,107.402054 408.976349,114.895264 408.976349,123.024399 
	C406.665497,123.024399 404.915802,123.024399 403.166077,123.024399 
z"/>
<path fill="#A57332" opacity="1.000000" stroke="none" 
	d="
M152.400650,23.744255 
	C150.069916,19.177334 153.655563,18.586910 156.204178,18.077379 
	C158.694489,17.579504 161.537949,17.593903 163.938751,18.326292 
	C165.649872,18.848286 166.884811,20.931337 168.332245,22.317753 
	C167.249420,23.363754 166.144196,25.320860 165.087738,25.294889 
	C160.954269,25.193279 156.836197,24.465067 152.400650,23.744255 
z"/>
<path fill="#986625" opacity="1.000000" stroke="none" 
	d="
M26.384455,143.062943 
	C27.778091,142.660751 29.534290,142.396347 31.613293,142.083328 
	C31.476473,141.505981 31.271421,140.640717 31.035969,139.441620 
	C37.078617,140.080597 43.151672,141.053406 49.569695,142.444214 
	C50.253422,144.333603 50.592178,145.805023 50.930931,147.276428 
	C42.869625,145.917847 34.808323,144.559280 26.384455,143.062943 
z"/>
<path fill="#2D231A" opacity="1.000000" stroke="none" 
	d="
M218.998779,96.996338 
	C219.223663,97.276138 219.448547,97.555946 219.821365,98.316185 
	C219.640854,102.865051 219.312393,106.933487 218.983932,111.001915 
	C216.856369,111.248436 214.728821,111.494965 212.281906,111.878075 
	C209.821594,106.534561 210.793472,101.310112 213.833405,96.330292 
	C215.936981,96.633522 217.467880,96.814926 218.998779,96.996338 
z"/>
<path fill="#9E692B" opacity="1.000000" stroke="none" 
	d="
M132.977951,132.136917 
	C132.977951,132.136917 132.798218,132.258102 132.269852,132.167908 
	C127.830421,133.214325 123.968712,134.619644 119.983322,135.351456 
	C118.450394,135.632935 116.635902,134.381042 115.130402,133.515137 
	C120.650917,131.408005 126.022079,129.699478 131.312607,127.769859 
	C133.031647,127.142868 134.539810,125.937752 136.555908,124.998795 
	C138.066940,125.001305 139.166504,125.002083 140.266052,125.002861 
	C140.337982,125.739944 140.409927,126.477028 140.100266,127.680237 
	C139.466965,128.427872 139.215256,128.709381 138.712189,129.101593 
	C137.648529,129.862625 136.836258,130.512985 136.023972,131.163361 
	C135.597443,131.420120 135.170914,131.676880 134.252838,131.774216 
	C133.500198,131.788834 133.239075,131.962875 132.977951,132.136917 
z"/>
<path fill="#976324" opacity="1.000000" stroke="none" 
	d="
M74.667465,76.936859 
	C74.006973,78.365250 73.041588,79.608002 71.600555,81.074669 
	C66.419228,79.484970 61.713554,77.671356 57.223907,75.598877 
	C57.641754,73.722961 57.843567,72.105904 58.045380,70.488846 
	C63.484444,72.576302 68.923515,74.663757 74.667465,76.936859 
z"/>
<path fill="#9E692B" opacity="1.000000" stroke="none" 
	d="
M71.068367,139.970642 
	C70.502510,141.359512 69.936646,142.748398 69.219940,144.437225 
	C64.475868,142.867508 59.882648,140.997849 55.092148,138.470215 
	C55.332081,136.353531 55.769302,134.894806 56.561378,133.572266 
	C61.633614,135.795837 66.350990,137.883240 71.068367,139.970642 
z"/>
<path fill="#A67134" opacity="1.000000" stroke="none" 
	d="
M158.329163,35.693710 
	C157.250778,35.002411 156.563019,34.429138 155.815811,33.948177 
	C153.212143,32.272202 153.174255,30.947229 156.692444,29.986870 
	C161.487778,29.438015 165.897461,28.902527 171.105103,28.270138 
	C172.896500,31.642759 170.389816,33.590393 165.801697,34.730385 
	C163.762497,34.969734 162.389862,35.327255 161.017242,35.684776 
	C160.242325,35.741203 159.467422,35.797634 158.329163,35.693710 
z"/>
<path fill="#986627" opacity="1.000000" stroke="none" 
	d="
M56.206528,133.436081 
	C55.769302,134.894806 55.332081,136.353531 54.826023,138.273727 
	C48.117779,136.410477 41.478371,134.085739 34.589348,131.465912 
	C35.910271,131.392609 37.533760,131.962524 39.035812,131.734070 
	C40.417622,131.523895 41.668774,130.454727 43.378464,129.375809 
	C47.921806,130.470459 52.064167,131.953278 56.206528,133.436081 
z"/>
<path fill="#A26D2D" opacity="1.000000" stroke="none" 
	d="
M51.276932,147.500458 
	C50.592178,145.805023 50.253422,144.333603 49.952499,142.561737 
	C56.052296,143.489136 62.114258,144.716965 68.585487,146.003784 
	C67.685051,147.156372 66.375351,148.250000 65.034088,149.689011 
	C64.144508,149.986069 63.286476,149.937759 62.057667,149.350998 
	C60.468601,148.835144 59.250313,148.857727 58.032028,148.880310 
	C55.895660,148.495056 53.759293,148.109772 51.276932,147.500458 
z"/>
<path fill="#986627" opacity="1.000000" stroke="none" 
	d="
M114.949699,133.827820 
	C116.635902,134.381042 118.450394,135.632935 119.983322,135.351456 
	C123.968712,134.619644 127.830421,133.214325 132.181091,132.105713 
	C124.055107,135.476318 115.489494,138.818924 106.493698,142.114929 
	C106.063515,142.068298 105.958374,141.940689 106.121964,141.612640 
	C106.522087,139.852982 106.758614,138.421402 107.206772,136.704346 
	C109.928825,135.555176 112.439262,134.691498 114.949699,133.827820 
z"/>
<path fill="#976320" opacity="1.000000" stroke="none" 
	d="
M35.005741,69.922058 
	C36.237049,69.343536 37.468357,68.765007 39.611759,67.757942 
	C36.922096,66.552177 35.047188,65.711670 33.090736,64.520355 
	C38.723534,65.448593 44.437874,66.727638 50.292244,68.347961 
	C49.408279,68.975304 48.384293,69.261368 47.046024,69.635231 
	C47.787666,71.007393 48.372829,72.090050 48.541492,73.187073 
	C43.751907,72.108322 39.378826,71.015190 35.005741,69.922058 
z"/>
<path fill="#30241C" opacity="1.000000" stroke="none" 
	d="
M406.225830,73.017662 
	C408.104095,74.448372 410.329254,75.681984 410.821655,77.409508 
	C411.164886,78.613663 409.452240,81.288391 408.069183,81.846130 
	C406.741089,82.381676 404.022064,81.538696 403.092987,80.366936 
	C402.285492,79.348503 402.852570,76.942123 403.343079,75.308502 
	C403.620789,74.383644 404.967682,73.779831 406.225830,73.017662 
z"/>
<path fill="#372D23" opacity="1.000000" stroke="none" 
	d="
M408.907166,98.967209 
	C407.215637,98.338455 405.524139,97.709709 403.493896,97.045776 
	C403.155182,93.928101 403.155182,90.845604 403.155182,87.254623 
	C405.512726,87.254623 407.594727,87.254623 409.502167,87.929703 
	C409.187469,92.058929 409.047302,95.513069 408.907166,98.967209 
z"/>
<path fill="#A26D2D" opacity="1.000000" stroke="none" 
	d="
M48.957993,73.172699 
	C48.372829,72.090050 47.787666,71.007393 47.046024,69.635231 
	C48.384293,69.261368 49.408279,68.975304 50.675926,68.470047 
	C53.116913,68.870499 55.314236,69.490135 57.778465,70.299316 
	C57.843567,72.105904 57.641754,73.722961 56.862514,75.569138 
	C53.842728,74.923073 51.400360,74.047882 48.957993,73.172699 
z"/>
<path fill="#A4733B" opacity="1.000000" stroke="none" 
	d="
M144.992432,48.089142 
	C146.085815,47.594177 147.367905,47.035374 148.229507,47.419571 
	C151.166916,48.729397 153.956238,50.371368 157.376999,52.192665 
	C156.326187,52.900364 154.478745,54.808861 153.835709,54.465012 
	C150.709671,52.793407 147.906128,50.518673 144.992432,48.089142 
z"/>
<path fill="#9E692A" opacity="1.000000" stroke="none" 
	d="
M112.610596,144.083893 
	C113.393600,145.008224 113.781982,145.875107 114.283058,146.993546 
	C112.281906,147.567642 110.300972,148.135941 108.192215,148.996368 
	C107.619698,149.513351 107.174995,149.738220 106.106583,149.678009 
	C102.326225,149.593002 99.169579,149.793030 96.012932,149.993057 
	C96.009758,149.550339 96.006592,149.107605 96.375259,148.290802 
	C98.820770,147.325821 100.894440,146.734924 102.968109,146.144028 
	C106.050735,145.438171 109.133354,144.732315 112.610596,144.083893 
z"/>
<path fill="#F8F0E6" opacity="1.000000" stroke="none" 
	d="
M162.158844,49.399117 
	C162.462402,47.658577 162.773468,45.127800 163.374039,45.057121 
	C165.004822,44.865211 166.906738,45.465393 168.359695,46.327236 
	C168.727310,46.545296 167.639481,48.909466 167.587311,50.301216 
	C167.567734,50.824032 168.590240,51.385918 169.516632,51.891785 
	C167.335724,55.373417 164.554138,54.596260 162.158844,49.399117 
z"/>
<path fill="#080303" opacity="1.000000" stroke="none" 
	d="
M386.466583,123.857956 
	C386.020477,108.918304 386.020477,93.902023 386.020477,78.367424 
	C384.091217,78.224556 382.520935,78.108276 380.517303,77.987854 
	C382.279968,77.494514 384.475983,77.005302 386.912689,76.462471 
	C386.912689,92.782845 386.912689,108.282089 386.466583,123.857956 
z"/>
<path fill="#F8F0E6" opacity="1.000000" stroke="none" 
	d="
M136.969849,28.567608 
	C142.535782,25.644321 143.640976,30.508236 146.619446,33.364616 
	C143.828094,33.989223 141.810349,34.440723 139.407532,34.967598 
	C137.626144,33.237850 135.164719,31.789936 136.969849,28.567608 
z"/>
<path fill="#31261D" opacity="1.000000" stroke="none" 
	d="
M306.093323,104.429871 
	C308.783875,103.357185 311.712646,101.731140 312.033569,106.596603 
	C312.295837,110.573257 311.257050,112.610268 306.530609,111.008827 
	C306.113281,108.955994 306.065399,106.909355 306.093323,104.429871 
z"/>
<path fill="#030001" opacity="1.000000" stroke="none" 
	d="
M408.941772,99.438019 
	C409.047302,95.513069 409.187469,92.058929 409.622986,88.324722 
	C409.918335,99.829742 409.918335,111.614822 409.918335,123.867325 
	C407.816071,123.867325 405.585999,123.867325 403.260986,123.445862 
	C404.915802,123.024399 406.665497,123.024399 408.976349,123.024399 
	C408.976349,114.895264 408.976349,107.402054 408.941772,99.438019 
z"/>
<path fill="#31261D" opacity="1.000000" stroke="none" 
	d="
M306.094421,78.442230 
	C309.380615,79.246750 312.084229,83.733887 310.761627,86.295181 
	C310.380615,87.033096 308.233307,86.858940 306.529816,87.052948 
	C306.115173,84.297729 306.066498,81.592499 306.094421,78.442230 
z"/>
<path fill="#080303" opacity="1.000000" stroke="none" 
	d="
M470.474182,108.050095 
	C471.342651,107.663376 472.673218,107.050232 474.011932,107.031837 
	C481.117493,106.934280 488.225098,106.985985 495.525848,106.985985 
	C495.818695,104.533630 496.049438,102.601219 496.534607,100.372772 
	C497.055145,102.503899 497.321289,104.931061 497.668579,108.098114 
	C488.536499,108.098114 479.738281,108.098114 470.474182,108.050095 
z"/>
<path fill="#AE814A" opacity="1.000000" stroke="none" 
	d="
M127.846954,55.091591 
	C126.751900,53.369198 125.989975,51.578793 125.228043,49.788383 
	C126.500626,49.437042 127.771400,48.845200 129.046555,48.835613 
	C129.686020,48.830807 130.979828,50.181183 130.873199,50.414993 
	C130.138718,52.025623 129.112488,53.503208 127.846954,55.091591 
z"/>
<path fill="#946118" opacity="1.000000" stroke="none" 
	d="
M140.226379,104.591278 
	C139.784012,104.525528 139.127151,103.992058 139.130768,103.463104 
	C139.208389,92.137039 139.360001,80.811478 139.824219,69.207428 
	C140.207260,80.661240 140.263367,92.393448 140.226379,104.591278 
z"/>
<path fill="#84560D" opacity="1.000000" stroke="none" 
	d="
M150.560059,140.984482 
	C150.128998,132.136551 150.070648,123.043175 150.243835,113.478043 
	C150.475342,113.006287 150.931961,113.005539 150.931961,113.005539 
	C150.932236,122.250038 150.932495,131.494537 150.560059,140.984482 
z"/>
<path fill="#342A21" opacity="1.000000" stroke="none" 
	d="
M219.034485,96.645378 
	C217.467880,96.814926 215.936981,96.633522 214.168030,96.149940 
	C215.079453,94.274277 216.228958,92.700790 217.711090,91.070892 
	C218.385880,92.774460 218.728027,94.534439 219.034485,96.645378 
z"/>
<path fill="#080303" opacity="1.000000" stroke="none" 
	d="
M356.071472,95.521347 
	C355.682739,92.189346 355.277924,88.395294 355.009430,84.591629 
	C354.874054,82.673553 354.985840,80.738037 354.985840,78.340469 
	C353.030212,78.207657 351.472229,78.101860 349.478333,78.002472 
	C351.206390,77.445786 353.370331,76.882668 356.111755,76.169281 
	C356.111755,83.135757 356.111755,89.095543 356.071472,95.521347 
z"/>
<path fill="#8C5D1D" opacity="1.000000" stroke="none" 
	d="
M151.027985,112.545082 
	C150.931961,113.005539 150.475342,113.006287 150.247284,113.010284 
	C150.139450,106.216049 150.259659,99.417801 150.667694,92.321411 
	C151.011673,98.710381 151.067825,105.397507 151.027985,112.545082 
z"/>
<path fill="#976527" opacity="1.000000" stroke="none" 
	d="
M95.855873,150.237427 
	C99.169579,149.793030 102.326225,149.593002 105.726822,149.644501 
	C102.262497,150.637466 98.554214,151.378876 94.429871,152.068024 
	C94.575485,151.504440 95.137146,150.993118 95.855873,150.237427 
z"/>
<path fill="#986627" opacity="1.000000" stroke="none" 
	d="
M102.702377,146.054962 
	C100.894440,146.734924 98.820770,147.325821 96.374619,147.958740 
	C96.001480,147.250717 96.000824,146.500687 96.369370,145.371063 
	C98.157379,144.658630 99.576187,144.325790 101.153694,144.159058 
	C101.312401,144.325150 101.657677,144.628296 101.657677,144.628296 
	C101.917336,145.074173 102.176994,145.520035 102.702377,146.054962 
z"/>
<path fill="#986627" opacity="1.000000" stroke="none" 
	d="
M140.359253,124.637405 
	C139.166504,125.002083 138.066940,125.001305 136.488998,124.602913 
	C136.057907,123.138519 136.105225,122.071747 136.152527,121.004967 
	C136.934341,121.064560 137.716141,121.124161 138.877762,121.327026 
	C139.570770,121.662437 139.883957,121.854591 140.197144,122.046738 
	C140.282257,122.788475 140.367355,123.530212 140.359253,124.637405 
z"/>
<path fill="#F8F0E6" opacity="1.000000" stroke="none" 
	d="
M170.237244,51.904980 
	C170.257095,49.863556 170.652115,47.834057 171.020508,45.400608 
	C172.900085,47.415489 174.859497,49.837254 170.237244,51.904980 
z"/>
<path fill="#8C5D1D" opacity="1.000000" stroke="none" 
	d="
M151.038483,88.529427 
	C150.646103,85.242737 150.333038,81.504875 150.035370,77.298706 
	C150.406433,80.579689 150.762115,84.328972 151.038483,88.529427 
z"/>
<path fill="#A26D2D" opacity="1.000000" stroke="none" 
	d="
M161.364578,35.767452 
	C162.389862,35.327255 163.762497,34.969734 165.434570,34.743748 
	C164.393311,35.200230 163.052612,35.525177 161.364578,35.767452 
z"/>
<path fill="#946118" opacity="1.000000" stroke="none" 
	d="
M140.291412,121.598595 
	C139.883957,121.854591 139.570770,121.662437 139.114563,121.230759 
	C139.154251,118.476654 139.336929,115.962082 139.838074,113.187225 
	C140.232910,115.668114 140.309296,118.409279 140.291412,121.598595 
z"/>
<path fill="#986627" opacity="1.000000" stroke="none" 
	d="
M136.342834,131.208725 
	C136.836258,130.512985 137.648529,129.862625 139.004059,129.108261 
	C139.741638,129.006851 139.935974,129.009430 140.130295,129.011993 
	C138.974091,129.759369 137.817886,130.506729 136.342834,131.208725 
z"/>
<path fill="#190E08" opacity="1.000000" stroke="none" 
	d="
M163.058746,118.431122 
	C163.417206,119.729561 163.714981,121.435165 164.001923,123.535530 
	C163.660095,122.232956 163.329086,120.535629 163.058746,118.431122 
z"/>
<path fill="#976527" opacity="1.000000" stroke="none" 
	d="
M140.602081,139.075348 
	C139.830795,139.404816 138.690079,139.668427 137.175766,139.878952 
	C137.945663,139.553741 139.089172,139.281616 140.602081,139.075348 
z"/>
<path fill="#9E692B" opacity="1.000000" stroke="none" 
	d="
M97.673592,76.145813 
	C97.183334,76.741669 96.371468,77.356857 95.201988,77.958542 
	C95.680244,77.351753 96.516113,76.758453 97.673592,76.145813 
z"/>
<path fill="#976324" opacity="1.000000" stroke="none" 
	d="
M58.406898,149.003418 
	C59.250313,148.857727 60.468601,148.835144 61.802841,149.144470 
	C60.873119,149.359772 59.827442,149.243149 58.406898,149.003418 
z"/>
<path fill="#986627" opacity="1.000000" stroke="none" 
	d="
M30.962368,130.372620 
	C31.699421,130.276260 32.686749,130.456268 33.893253,130.958160 
	C33.145836,131.069687 32.179237,130.859329 30.962368,130.372620 
z"/>
<path fill="#986627" opacity="1.000000" stroke="none" 
	d="
M106.117676,142.130768 
	C105.442741,142.558548 104.713654,142.923859 103.575401,143.226273 
	C103.166237,143.163361 102.977715,142.965363 103.189514,142.713211 
	C104.253662,142.287598 105.106018,142.114136 105.958374,141.940674 
	C105.958374,141.940689 106.063515,142.068298 106.117676,142.130768 
z"/>
<path fill="#986627" opacity="1.000000" stroke="none" 
	d="
M103.262589,143.260315 
	C102.942436,143.684692 102.525925,144.012131 101.883545,144.483932 
	C101.657677,144.628296 101.312401,144.325150 101.319420,143.914825 
	C101.876862,143.324799 102.427292,143.145081 102.977715,142.965363 
	C102.977715,142.965363 103.166237,143.163361 103.262589,143.260315 
z"/>
<path fill="#080303" opacity="1.000000" stroke="none" 
	d="
M379.814392,123.136330 
	C380.309418,123.087036 380.569611,123.252716 380.872131,123.711334 
	C380.519196,123.708580 380.074249,123.490921 379.814392,123.136330 
z"/>
<path fill="#986627" opacity="1.000000" stroke="none" 
	d="
M133.242767,132.147339 
	C133.239075,131.962875 133.500198,131.788834 133.873749,131.772339 
	C133.826630,132.005829 133.667114,132.081787 133.242767,132.147339 
z"/>
<path fill="#A4733B" opacity="1.000000" stroke="none" 
	d="
M146.156250,84.255478 
	C146.586624,84.182129 146.691025,84.441727 146.398926,84.884789 
	C146.207916,84.822311 146.150543,84.662369 146.156250,84.255478 
z"/>
<path fill="#946118" opacity="1.000000" stroke="none" 
	d="
M140.151550,65.733475 
	C139.856659,65.828033 139.554977,65.607559 139.144257,65.124016 
	C139.405090,65.046776 139.774918,65.232605 140.151550,65.733475 
z"/>
<path fill="#946118" opacity="1.000000" stroke="none" 
	d="
M140.254395,128.750763 
	C139.935974,129.009430 139.741638,129.006851 139.255432,128.997589 
	C139.215256,128.709381 139.466965,128.427872 139.984619,128.035919 
	C140.293198,128.113495 140.335831,128.301514 140.254395,128.750763 
z"/>
<path fill="#F7F7F5" opacity="1.000000" stroke="none" 
	d="
M178.003799,103.105042 
	C181.461807,103.222282 184.547318,102.883919 187.388580,103.564796 
	C191.369507,104.518784 194.187912,107.140137 193.944687,111.665833 
	C193.702942,116.164062 190.178024,117.252274 186.629639,117.464996 
	C181.556198,117.769150 176.450928,117.542458 171.116638,117.542458 
	C171.116638,112.719452 171.116638,108.152809 171.116638,103.104240 
	C173.305466,103.104240 175.413879,103.104240 178.003799,103.105042 
z"/>
<path fill="#FCFBFB" opacity="1.000000" stroke="none" 
	d="
M182.716171,83.648010 
	C184.640671,83.872406 186.636139,83.581322 187.459045,84.428795 
	C189.275345,86.299316 191.965027,89.055161 191.578430,90.870636 
	C191.144089,92.910461 187.928818,95.239471 185.541641,95.791252 
	C181.121613,96.812935 176.423752,96.632576 171.324371,96.988998 
	C171.324371,92.727692 171.324371,88.577232 171.324371,83.649040 
	C174.829361,83.649040 178.542282,83.649040 182.716171,83.648010 
z"/>
<path fill="#FAFAF9" opacity="1.000000" stroke="none" 
	d="
M277.553589,94.123932 
	C284.178314,95.473030 287.586121,100.107056 287.586334,105.645073 
	C287.586456,109.265373 284.910126,113.738083 282.052399,116.272942 
	C279.031342,118.952637 274.427734,119.322624 270.430573,116.492386 
	C264.947876,112.610313 263.611542,107.379128 265.457214,101.242577 
	C266.920532,96.377296 270.808502,94.157364 277.553589,94.123932 
z"/>
<path fill="#F3F2F0" opacity="1.000000" stroke="none" 
	d="
M475.302490,102.944473 
	C473.162750,102.660309 471.482849,102.362862 469.589447,102.027611 
	C470.842072,96.652618 473.930298,94.025703 478.583588,93.318909 
	C483.257751,92.608948 486.469238,95.139832 488.894440,98.783348 
	C489.458282,99.630486 489.971375,101.136070 489.586060,101.817307 
	C489.188721,102.519798 487.675720,102.848267 486.635345,102.883560 
	C483.014648,103.006348 479.387238,102.931129 475.302490,102.944473 
z"/>
<path fill="#FAFAF9" opacity="1.000000" stroke="none" 
	d="
M219.157440,111.227722 
	C219.312393,106.933487 219.640854,102.865051 220.070099,98.428696 
	C226.190491,92.946075 233.724640,92.616035 237.938431,97.520142 
	C241.818054,102.035378 243.248596,110.382744 237.395523,115.250648 
	C235.066101,117.187988 231.087265,117.142120 227.071106,117.930481 
	C225.543915,117.849304 224.804977,117.836754 224.066025,117.824203 
	C222.905151,116.307129 221.744293,114.790054 220.257019,113.147995 
	C219.930603,113.023026 219.832443,113.065437 219.832443,113.065437 
	C219.665283,112.528137 219.498123,111.990837 219.157440,111.227722 
z"/>
<path fill="#2D231A" opacity="1.000000" stroke="none" 
	d="
M224.075928,118.184265 
	C224.804977,117.836754 225.543915,117.849304 226.641510,117.964737 
	C226.845856,119.220810 226.691559,120.374008 226.330048,123.075737 
	C225.121155,120.634827 224.603485,119.589577 224.075928,118.184265 
z"/>
<path fill="#2D231A" opacity="1.000000" stroke="none" 
	d="
M219.941910,113.075287 
	C219.488525,114.027145 219.023834,114.926758 218.559143,115.826363 
	C218.105209,115.449203 217.651291,115.072037 217.197357,114.694878 
	C217.837646,114.146484 218.477936,113.598091 219.475342,113.057571 
	C219.832443,113.065437 219.930603,113.023026 219.941910,113.075287 
z"/>
<path fill="#FEFDFB" opacity="1.000000" stroke="none" 
	d="
M136.085892,120.540115 
	C136.105225,122.071747 136.057907,123.138519 136.077515,124.601181 
	C134.539810,125.937752 133.031647,127.142868 131.312607,127.769859 
	C126.022079,129.699478 120.650917,131.408005 115.130402,133.515137 
	C112.439262,134.691498 109.928825,135.555176 106.834152,136.713959 
	C99.951561,139.617966 93.653214,142.226913 87.354858,144.835861 
	C87.324753,143.807999 87.294640,142.780121 87.237823,140.919449 
	C87.152916,133.719101 87.094719,127.351578 87.142456,120.579025 
	C87.177048,118.788208 87.105682,117.402428 87.106918,115.551544 
	C87.136223,108.048401 87.092934,101.010345 87.154266,93.584229 
	C87.183784,92.134979 87.108688,91.073784 87.090622,89.757812 
	C87.101723,89.335167 87.055794,89.167290 87.009857,88.999413 
	C89.514442,87.170311 92.019020,85.341217 94.761795,83.273941 
	C107.918922,78.508781 120.837860,73.981796 134.613403,69.154648 
	C135.197159,72.601486 135.915649,74.932526 135.934692,77.269279 
	C136.051086,91.537216 136.008713,105.806450 136.085892,120.540115 
z"/>
<path fill="#F8F0E6" opacity="1.000000" stroke="none" 
	d="
M141.624329,37.623711 
	C144.598587,38.013512 147.303116,38.685997 150.007645,39.358479 
	C149.998291,40.064838 149.988922,40.771198 149.979553,41.477558 
	C147.815887,41.901726 145.533875,42.909035 143.538483,42.504074 
	C142.540573,42.301556 142.065903,39.520950 141.624329,37.623711 
z"/>
<path fill="#A67134" opacity="1.000000" stroke="none" 
	d="
M150.398773,29.955399 
	C150.792465,29.715481 151.184250,29.717352 151.573807,29.747736 
	C151.584976,29.748610 151.572556,30.052141 151.571152,30.214552 
	C151.179626,30.210112 150.788086,30.205673 150.398773,29.955399 
z"/>
<path fill="#FEFDFC" opacity="1.000000" stroke="none" 
	d="
M48.541496,73.187073 
	C51.400360,74.047882 53.842728,74.923073 56.646484,75.827995 
	C61.713554,77.671356 66.419228,79.484970 71.493835,81.407990 
	C75.210953,83.786530 78.559128,86.055664 81.946442,89.126907 
	C82.033699,103.623199 82.081833,117.317375 82.067734,131.391113 
	C82.378937,133.922333 82.752380,136.073990 83.130432,138.502853 
	C83.338318,139.060379 83.541588,139.340729 83.744865,139.621063 
	C82.910881,141.133835 82.076904,142.646591 80.986252,144.624954 
	C78.051086,143.154236 74.923126,141.586899 71.431763,139.995117 
	C66.350990,137.883240 61.633614,135.795837 56.561378,133.572266 
	C52.064167,131.953278 47.921806,130.470459 43.393780,128.976883 
	C40.348385,127.979530 37.688652,126.992943 34.600281,125.511459 
	C34.094555,107.686424 34.017475,90.356293 33.940392,73.026169 
	C34.109894,72.126968 34.279396,71.227768 34.727322,70.125313 
	C39.378826,71.015190 43.751907,72.108322 48.541496,73.187073 
z"/>
<path fill="#895405" opacity="1.000000" stroke="none" 
	d="
M33.652061,73.324081 
	C34.017475,90.356293 34.094555,107.686424 34.240150,125.475906 
	C33.887413,125.278915 33.097313,124.621735 33.098797,123.966347 
	C33.136776,107.184784 33.257454,90.403397 33.652061,73.324081 
z"/>
<path fill="#9E692A" opacity="1.000000" stroke="none" 
	d="
M86.932526,144.881882 
	C93.653214,142.226913 99.951561,139.617966 106.622528,136.999420 
	C106.758614,138.421402 106.522087,139.852982 106.121964,141.612625 
	C105.106018,142.114136 104.253662,142.287598 103.189514,142.713211 
	C102.427292,143.145081 101.876862,143.324799 101.160713,143.748734 
	C99.576187,144.325790 98.157379,144.658630 96.369598,144.996033 
	C94.006104,147.175400 91.836807,149.217056 90.056206,151.554779 
	C87.048462,155.503571 83.445435,154.402863 79.975441,152.813614 
	C78.992218,152.363312 78.240295,150.493011 78.198158,149.246368 
	C78.172935,148.499817 79.607674,147.434006 80.600372,146.980911 
	C82.489189,146.118835 84.531570,145.593216 86.932526,144.881882 
z"/>
<path fill="#905C0F" opacity="1.000000" stroke="none" 
	d="
M84.186325,139.772430 
	C83.541588,139.340729 83.338318,139.060379 83.657227,138.483749 
	C84.773674,137.448654 85.367935,136.709854 85.967728,135.507507 
	C86.327682,130.357315 86.682098,125.670677 87.036514,120.984047 
	C87.094719,127.351578 87.152916,133.719101 87.125839,140.549561 
	C86.236313,140.649567 85.432053,140.286682 84.186325,139.772430 
z"/>
<path fill="#A06D30" opacity="1.000000" stroke="none" 
	d="
M87.142456,120.579025 
	C86.682098,125.670677 86.327682,130.357315 85.614822,135.448334 
	C84.214249,134.238998 83.172112,132.625275 82.129974,131.011551 
	C82.081833,117.317375 82.033699,103.623199 82.049805,89.464005 
	C83.148926,88.999420 84.183807,88.999847 85.718201,89.225815 
	C86.489670,89.638435 86.761627,89.825508 87.033585,90.012589 
	C87.108688,91.073784 87.183784,92.134979 86.839737,93.866837 
	C86.625160,101.697212 86.829735,108.856926 87.034317,116.016640 
	C87.105682,117.402428 87.177048,118.788208 87.142456,120.579025 
z"/>
<path fill="#905C0F" opacity="1.000000" stroke="none" 
	d="
M87.090622,89.757812 
	C86.761627,89.825508 86.489670,89.638435 86.106300,89.226074 
	C86.164040,88.998886 86.333199,88.996979 86.756104,88.997246 
	C87.055794,89.167290 87.101723,89.335167 87.090622,89.757812 
z"/>
<path fill="#905C0F" opacity="1.000000" stroke="none" 
	d="
M87.106911,115.551544 
	C86.829735,108.856926 86.625160,101.697212 86.735107,94.254898 
	C87.092934,101.010345 87.136223,108.048401 87.106911,115.551544 
z"/>
<path fill="#976324" opacity="1.000000" stroke="none" 
	d="
M82.067734,131.391113 
	C83.172112,132.625275 84.214249,134.238998 85.609299,135.911896 
	C85.367935,136.709854 84.773674,137.448654 83.652618,138.206558 
	C82.752380,136.073990 82.378937,133.922333 82.067734,131.391113 
z"/>
</svg>